HIERARCHY
ROOT Hips
{
	OFFSET 0.000000 71.427986 0.000000
	CHANNELS 6 Xposition Yposition Zposition Xrotation Yrotation Zrotation
	JOINT Pelvis
	{
		OFFSET 0.000000 0.000000 0.000000
		CHANNELS 3 Xrotation Yrotation Zrotation
		JOINT LeftUpLeg
		{
			OFFSET 6.797100 -2.508499 -1.318700
			CHANNELS 3 Xrotation Yrotation Zrotation
			JOINT LeftLeg
			{
				OFFSET 0.069008 -29.241863 0.690200
				CHANNELS 3 Xrotation Yrotation Zrotation
				JOINT LeftFoot
				{
					OFFSET -0.069008 -29.568123 -0.266800
					CHANNELS 3 Xrotation Yrotation Zrotation
					JOINT LeftToeBase
					{
						OFFSET 3.145500 -8.631000 16.059900
						CHANNELS 3 Xrotation Yrotation Zrotation
						End Site
						{
							OFFSET 0.000000 18.501587 0.000000
						}
					}
				}
			}
			JOINT Left_ShortSleeve
			{
				OFFSET 0.265923 -10.480953 1.153800
				CHANNELS 3 Xrotation Yrotation Zrotation
				End Site
				{
					OFFSET 1.725763 19.823879 0.000000
				}
			}
		}
		JOINT RightUpLeg
		{
			OFFSET -6.797100 -2.508499 -1.318700
			CHANNELS 3 Xrotation Yrotation Zrotation
			JOINT RightLeg
			{
				OFFSET -0.082453 -29.241932 0.688000
				CHANNELS 3 Xrotation Yrotation Zrotation
				JOINT RightFoot
				{
					OFFSET 0.082453 -29.568058 -0.264600
					CHANNELS 3 Xrotation Yrotation Zrotation
					JOINT RightToeBase
					{
						OFFSET -3.115300 -8.682800 16.113400
						CHANNELS 3 Xrotation Yrotation Zrotation
						End Site
						{
							OFFSET 0.000000 18.567114 0.000000
						}
					}
				}
			}
			JOINT Right_ShortSleeve
			{
				OFFSET -0.265923 -10.480953 1.153800
				CHANNELS 3 Xrotation Yrotation Zrotation
				End Site
				{
					OFFSET -1.725766 19.823910 0.000000
				}
			}
		}
	}
	JOINT Spine
	{
		OFFSET 0.000000 13.368103 0.470500
		CHANNELS 3 Xrotation Yrotation Zrotation
		JOINT Spine1
		{
			OFFSET 0.147000 13.837402 0.538800
			CHANNELS 3 Xrotation Yrotation Zrotation
			JOINT Spine2
			{
				OFFSET 0.168000 16.242897 -1.435500
				CHANNELS 3 Xrotation Yrotation Zrotation
				JOINT Neck
				{
					OFFSET 0.217200 18.631500 -1.679100
					CHANNELS 3 Xrotation Yrotation Zrotation
					JOINT Head
					{
						OFFSET 0.000000 6.599396 1.385900
						CHANNELS 3 Xrotation Yrotation Zrotation
						JOINT Hat
						{
							OFFSET -0.532200 27.220596 -10.096100
							CHANNELS 3 Xrotation Yrotation Zrotation
							End Site
							{
								OFFSET 0.000000 22.029861 0.000000
							}
						}
						JOINT HairD
						{
							OFFSET -10.777400 17.437393 -1.325900
							CHANNELS 3 Xrotation Yrotation Zrotation
							JOINT HairD1
							{
								OFFSET -3.290299 -11.051193 1.062200
								CHANNELS 3 Xrotation Yrotation Zrotation
								End Site
								{
									OFFSET 0.000000 11.579437 0.000000
								}
							}
						}
						JOINT HairB
						{
							OFFSET -10.777400 17.437393 1.467900
							CHANNELS 3 Xrotation Yrotation Zrotation
							JOINT HairB1
							{
								OFFSET -1.561200 -12.956299 3.590200
								CHANNELS 3 Xrotation Yrotation Zrotation
								End Site
								{
									OFFSET 0.000000 13.534866 0.000000
								}
							}
						}
						JOINT HairA
						{
							OFFSET 9.713100 17.437393 1.467900
							CHANNELS 3 Xrotation Yrotation Zrotation
							JOINT HairA1
							{
								OFFSET 1.561200 -12.956299 3.590200
								CHANNELS 3 Xrotation Yrotation Zrotation
								End Site
								{
									OFFSET 0.000000 13.534866 0.000000
								}
							}
						}
						JOINT HairC
						{
							OFFSET 9.713100 17.437393 -1.325900
							CHANNELS 3 Xrotation Yrotation Zrotation
							JOINT HairC1
							{
								OFFSET 3.290300 -11.051193 1.062200
								CHANNELS 3 Xrotation Yrotation Zrotation
								End Site
								{
									OFFSET 0.000000 11.579437 0.000000
								}
							}
						}
					}
				}
				JOINT LeftShoulder
				{
					OFFSET 5.101800 15.108002 -2.763700
					CHANNELS 3 Xrotation Yrotation Zrotation
					JOINT LeftArm
					{
						OFFSET 9.825497 2.506317 -1.597400
						CHANNELS 3 Xrotation Yrotation Zrotation
						JOINT LeftForeArm
						{
							OFFSET 21.966244 0.000000 0.000000
							CHANNELS 3 Xrotation Yrotation Zrotation
							JOINT LeftHand
							{
								OFFSET 33.879036 0.000000 0.000000
								CHANNELS 3 Xrotation Yrotation Zrotation
								JOINT LeftHandThumb1
								{
									OFFSET 6.715286 -2.359680 3.363841
									CHANNELS 3 Xrotation Yrotation Zrotation
									JOINT LeftHandThumb2
									{
										OFFSET 2.507072 -1.447464 1.447461
										CHANNELS 3 Xrotation Yrotation Zrotation
										JOINT LeftHandThumb3
										{
											OFFSET 2.898338 -1.673355 1.673357
											CHANNELS 3 Xrotation Yrotation Zrotation
											End Site
											{
												OFFSET -0.295959 3.727692 -0.131651
											}
										}
									}
								}
								JOINT LeftHandIndex1
								{
									OFFSET 14.190811 -0.254547 3.840278
									CHANNELS 3 Xrotation Yrotation Zrotation
									JOINT LeftHandIndex2
									{
										OFFSET 3.551727 0.000000 -0.000000
										CHANNELS 3 Xrotation Yrotation Zrotation
										JOINT LeftHandIndex3
										{
											OFFSET 2.894196 0.000000 0.000000
											CHANNELS 3 Xrotation Yrotation Zrotation
											End Site
											{
												OFFSET -1.000603 2.690872 0.366626
											}
										}
									}
								}
								JOINT LeftHandMiddle1
								{
									OFFSET 13.776489 0.000000 0.000000
									CHANNELS 3 Xrotation Yrotation Zrotation
									JOINT LeftHandMiddle2
									{
										OFFSET 3.438232 0.000000 0.000000
										CHANNELS 3 Xrotation Yrotation Zrotation
										JOINT LeftHandMiddle3
										{
											OFFSET 3.691551 0.000000 0.000000
											CHANNELS 3 Xrotation Yrotation Zrotation
											End Site
											{
												OFFSET -1.082298 3.499527 0.457670
											}
										}
									}
								}
								JOINT LeftHandRing1
								{
									OFFSET 13.966164 -0.268127 -3.067488
									CHANNELS 3 Xrotation Yrotation Zrotation
									JOINT LeftHandRing2
									{
										OFFSET 3.162567 0.000000 0.000000
										CHANNELS 3 Xrotation Yrotation Zrotation
										JOINT LeftHandRing3
										{
											OFFSET 3.324348 0.000000 0.000000
											CHANNELS 3 Xrotation Yrotation Zrotation
											End Site
											{
												OFFSET -0.861900 3.184998 0.405154
											}
										}
									}
								}
								JOINT LeftHandPinky1
								{
									OFFSET 13.131393 -0.168503 -5.746925
									CHANNELS 3 Xrotation Yrotation Zrotation
									JOINT LeftHandPinky2
									{
										OFFSET 2.849182 0.000000 0.000000
										CHANNELS 3 Xrotation Yrotation Zrotation
										JOINT LeftHandPinky3
										{
											OFFSET 2.805038 0.000000 0.000000
											CHANNELS 3 Xrotation Yrotation Zrotation
											End Site
											{
												OFFSET -0.882500 2.642609 0.325652
											}
										}
									}
								}
							}
							JOINT Left_Sleeve
							{
								OFFSET 6.592125 -0.646545 0.805568
								CHANNELS 3 Xrotation Yrotation Zrotation
								End Site
								{
									OFFSET -0.000179 20.275787 -0.000000
								}
							}
						}
					}
				}
				JOINT RightShoulder
				{
					OFFSET -5.731700 15.108002 -2.763700
					CHANNELS 3 Xrotation Yrotation Zrotation
					JOINT RightArm
					{
						OFFSET -9.825497 2.506317 -1.597400
						CHANNELS 3 Xrotation Yrotation Zrotation
						JOINT RightForeArm
						{
							OFFSET -21.966242 0.000000 0.000000
							CHANNELS 3 Xrotation Yrotation Zrotation
							JOINT RightHand
							{
								OFFSET -33.879032 0.000000 0.000000
								CHANNELS 3 Xrotation Yrotation Zrotation
								JOINT RightHandThumb1
								{
									OFFSET -6.715286 -2.359680 3.363841
									CHANNELS 3 Xrotation Yrotation Zrotation
									JOINT RightHandThumb2
									{
										OFFSET -2.507072 -1.447464 1.447461
										CHANNELS 3 Xrotation Yrotation Zrotation
										JOINT RightHandThumb3
										{
											OFFSET -2.898338 -1.673355 1.673357
											CHANNELS 3 Xrotation Yrotation Zrotation
											End Site
											{
												OFFSET 0.295959 3.727692 -0.131651
											}
										}
									}
								}
								JOINT RightHandIndex1
								{
									OFFSET -14.190811 -0.254547 3.840278
									CHANNELS 3 Xrotation Yrotation Zrotation
									JOINT RightHandIndex2
									{
										OFFSET -3.551727 0.000000 -0.000000
										CHANNELS 3 Xrotation Yrotation Zrotation
										JOINT RightHandIndex3
										{
											OFFSET -2.894196 0.000000 0.000000
											CHANNELS 3 Xrotation Yrotation Zrotation
											End Site
											{
												OFFSET 1.000603 2.690872 0.366626
											}
										}
									}
								}
								JOINT RightHandMiddle1
								{
									OFFSET -13.776489 0.000000 0.000000
									CHANNELS 3 Xrotation Yrotation Zrotation
									JOINT RightHandMiddle2
									{
										OFFSET -3.438232 0.000000 0.000000
										CHANNELS 3 Xrotation Yrotation Zrotation
										JOINT RightHandMiddle3
										{
											OFFSET -3.691551 0.000000 0.000000
											CHANNELS 3 Xrotation Yrotation Zrotation
											End Site
											{
												OFFSET 1.082298 3.499527 0.457670
											}
										}
									}
								}
								JOINT RightHandRing1
								{
									OFFSET -13.966164 -0.268127 -3.067488
									CHANNELS 3 Xrotation Yrotation Zrotation
									JOINT RightHandRing2
									{
										OFFSET -3.162567 0.000000 0.000000
										CHANNELS 3 Xrotation Yrotation Zrotation
										JOINT RightHandRing3
										{
											OFFSET -3.324348 0.000000 0.000000
											CHANNELS 3 Xrotation Yrotation Zrotation
											End Site
											{
												OFFSET 0.861900 3.184998 0.405154
											}
										}
									}
								}
								JOINT RightHandPinky1
								{
									OFFSET -13.131393 -0.168503 -5.746925
									CHANNELS 3 Xrotation Yrotation Zrotation
									JOINT RightHandPinky2
									{
										OFFSET -2.849182 0.000000 0.000000
										CHANNELS 3 Xrotation Yrotation Zrotation
										JOINT RightHandPinky3
										{
											OFFSET -2.805038 0.000000 0.000000
											CHANNELS 3 Xrotation Yrotation Zrotation
											End Site
											{
												OFFSET 0.882500 2.642609 0.325652
											}
										}
									}
								}
							}
							JOINT Right_Sleeve
							{
								OFFSET -6.592125 -0.646545 0.805568
								CHANNELS 3 Xrotation Yrotation Zrotation
								End Site
								{
									OFFSET 0.000179 20.275787 -0.000000
								}
							}
						}
					}
				}
				JOINT Bind_Right_JacketString
				{
					OFFSET -3.534800 11.969597 7.200700
					CHANNELS 3 Xrotation Yrotation Zrotation
					JOINT Bind_Right_JacketString1
					{
						OFFSET -0.319900 -6.102600 2.794100
						CHANNELS 3 Xrotation Yrotation Zrotation
						End Site
						{
							OFFSET 0.000000 6.719452 0.000000
						}
					}
				}
				JOINT Bind_Left_JacketString
				{
					OFFSET 2.904800 11.969597 7.200700
					CHANNELS 3 Xrotation Yrotation Zrotation
					JOINT Bind_Left_JacketString1
					{
						OFFSET 0.364800 -5.904503 3.186800
						CHANNELS 3 Xrotation Yrotation Zrotation
						End Site
						{
							OFFSET 0.000000 6.719513 0.000000
						}
					}
				}
				JOINT HairE
				{
					OFFSET 5.915200 17.612701 -11.592200
					CHANNELS 3 Xrotation Yrotation Zrotation
					JOINT HairE1
					{
						OFFSET 0.289200 -7.171898 -1.284500
						CHANNELS 3 Xrotation Yrotation Zrotation
						End Site
						{
							OFFSET 0.000000 7.291756 0.000000
						}
					}
				}
				JOINT HairF
				{
					OFFSET -0.864800 17.612701 -11.592200
					CHANNELS 3 Xrotation Yrotation Zrotation
					JOINT HairF1
					{
						OFFSET 0.000000 -14.087097 -2.127501
						CHANNELS 3 Xrotation Yrotation Zrotation
						End Site
						{
							OFFSET 0.000000 14.246841 0.000000
						}
					}
				}
				JOINT HairG
				{
					OFFSET -8.087700 17.612701 -11.592200
					CHANNELS 3 Xrotation Yrotation Zrotation
					JOINT HairG1
					{
						OFFSET -0.293600 -6.081398 -0.910100
						CHANNELS 3 Xrotation Yrotation Zrotation
						End Site
						{
							OFFSET 0.000000 6.156120 0.000000
						}
					}
				}
			}
		}
	}
	JOINT Pouch
	{
		OFFSET 0.000000 4.394501 10.847300
		CHANNELS 3 Xrotation Yrotation Zrotation
		End Site
		{
			OFFSET 0.000000 21.880577 0.000000
		}
	}
	JOINT Bag
	{
		OFFSET -13.229000 4.813004 -0.593300
		CHANNELS 3 Xrotation Yrotation Zrotation
		End Site
		{
			OFFSET 0.000000 21.880577 0.000000
		}
	}
	JOINT OccupyGuyFacialAnim_Joint
	{
		OFFSET 1.000000 -70.206398 -1.655000
		CHANNELS 3 Xrotation Yrotation Zrotation
		End Site
		{
			OFFSET 0.000000 21.880577 0.000000
		}
	}
}
MOTION
Frames: 4
Frame Time: 0.033333
0.032964 70.707298 1.473788 2.689480 0.387341 -0.377582 0.000000 0.000000 -0.000000 -3.130325 -3.371801 -1.253971 13.433221 0.086295 -0.385959 -13.029674 17.708524 1.867140 0.000000 -0.000001 0.000000 0.000000 -0.000000 -0.000000 -2.835721 -1.834755 -0.676429 13.429229 0.089959 0.516597 -13.683738 -13.412524 1.383927 -0.000000 0.000000 -0.000000 0.000000 0.000000 -0.000000 -1.243429 -0.352062 0.341906 -2.483930 -0.720025 0.767608 -2.483930 -0.720025 0.767608 2.433792 -0.177408 0.682217 2.872032 -1.127136 -0.955653 0.000000 0.000000 -0.000000 0.000000 0.000000 -0.000000 0.000000 0.000000 -0.000000 0.000000 0.000000 -0.000000 0.000000 -0.000000 0.000000 0.000000 0.000000 -0.000000 0.000000 -0.000000 0.000000 0.000000 0.000000 -0.000000 0.000000 0.000000 -0.000000 0.914589 -9.492743 -8.448148 14.041012 -16.837014 -72.169281 -0.000013 -17.290767 -0.000004 -7.183430 -8.084968 12.850735 -2.127889 1.426843 5.098764 6.321348 12.626546 0.713985 0.000002 -0.000000 -0.000002 1.454335 4.402644 -12.529250 0.079670 0.963864 -9.449457 -0.000002 0.000002 -0.000003 0.243265 3.800283 -13.521926 0.096862 1.062004 -10.421968 0.000005 -0.000001 0.000000 -1.046997 -0.149941 -18.129310 0.186733 1.468782 -14.489871 -0.000003 0.000002 -0.000001 -5.035297 -3.589655 -19.234042 0.221563 1.597472 -15.791816 -0.000000 0.000001 -0.000000 0.000000 -0.000000 0.000000 1.315870 13.909503 2.554760 13.337623 10.173368 74.976264 -0.000005 18.142845 0.000003 37.716294 5.764573 -7.279739 -4.571356 3.238679 -4.770614 6.358356 -14.447609 -2.112220 -0.000001 0.000000 -0.000001 1.650134 -5.821349 9.714419 0.041880 -0.623769 7.680427 -0.000000 0.000001 0.000002 0.738409 -5.270507 16.568147 0.143360 -1.147813 14.238119 -0.000000 0.000000 -0.000001 -0.895437 -0.688890 21.113733 0.238512 -1.472797 18.397943 0.000001 -0.000002 -0.000003 -5.135821 -0.686298 26.712247 0.419608 -1.933673 24.484577 0.000000 -0.000000 0.000000 0.000001 -0.000000 0.000001 0.000000 -0.000000 0.000000 0.000000 0.000000 0.000000 0.000000 -0.000000 0.000000 0.000000 -0.000000 0.000000 0.000000 -0.000000 0.000000 0.000000 0.000000 0.000000 0.000000 -0.000000 0.000000 0.000000 -0.000000 0.000000 0.000000 -0.000000 0.000000 0.000000 0.000000 0.000000 0.000000 0.000000 -0.000000 0.000000 0.000000 -0.000000 0.000000 0.000000 -0.000000 
0.006712 70.552673 1.498236 3.142270 -0.120770 -0.173785 0.000000 -0.000000 0.000000 -4.117644 -2.554471 -1.127264 14.630851 -0.163691 -1.129232 -14.118247 18.153439 2.725596 -0.000000 -0.000000 0.000000 -0.000000 0.000000 -0.000000 -5.283022 -1.645348 -0.780984 16.988786 0.022286 0.405255 -14.453899 -13.129993 0.813490 -0.000000 -0.000000 -0.000000 -0.000000 0.000000 -0.000000 -0.937597 -0.322867 0.135735 -2.142178 -0.662199 0.627244 -2.142432 -0.658901 0.627062 2.286983 -0.463049 0.890092 2.291956 -2.196931 -0.174721 0.000000 -0.000000 -0.000000 0.000000 -0.000000 -0.000000 0.000000 -0.000000 -0.000000 0.000000 -0.000000 -0.000000 0.000000 0.000000 -0.000000 0.000000 -0.000000 -0.000000 0.000000 0.000000 -0.000000 0.000000 -0.000000 -0.000000 0.000000 -0.000000 -0.000000 0.850515 -11.758881 -9.438492 13.028010 -12.359116 -68.766584 0.000002 -15.783539 -0.000022 -4.618679 -0.340192 5.781112 -2.101990 1.601522 5.481702 6.510626 13.824487 0.843661 0.000001 -0.000000 0.000001 1.502684 4.621564 -14.409078 0.108482 1.123347 -11.031325 -0.000003 0.000001 -0.000000 0.292665 3.982440 -15.400545 0.127797 1.218252 -11.976895 -0.000000 0.000001 0.000001 -1.136776 0.043723 -19.981937 0.228927 1.623248 -16.053596 0.000001 0.000001 0.000000 -5.042329 -3.406279 -21.052214 0.267149 1.750599 -17.352198 -0.000000 -0.000002 0.000003 -0.000001 -0.000000 -0.000000 1.051757 11.988291 5.002725 12.753120 8.962203 71.347767 -0.000000 18.715656 0.000005 30.299402 8.651668 -7.431439 -4.571360 3.238666 -4.770610 6.572434 -16.211184 -2.260878 0.000000 -0.000001 0.000000 1.591013 -5.487719 13.477230 0.144764 -1.153387 14.308530 0.000005 -0.000000 0.000000 0.931841 -5.497728 20.278553 0.306135 -1.662252 20.869191 0.000002 0.000000 -0.000001 -0.650755 -1.777281 24.709517 0.438522 -1.974662 25.039301 -0.000001 0.000000 -0.000004 -4.179383 -2.282461 30.237811 0.671324 -2.410731 31.117942 -0.000002 -0.000001 0.000000 0.000001 0.000001 -0.000001 -0.000000 -0.000000 0.000000 -0.000000 -0.000000 -0.000000 -0.000000 -0.000000 0.000000 -0.000000 -0.000000 0.000000 -0.000000 -0.000000 0.000000 -0.000000 -0.000000 0.000000 -0.000000 -0.000000 0.000000 -0.000000 -0.000000 0.000000 -0.000000 -0.000000 0.000000 -0.000000 -0.000000 0.000000 0.000000 -0.000000 0.000000 0.000000 -0.000000 0.000000 0.000000 -0.000000 0.000000 
-0.142952 70.355125 1.461758 3.694565 -1.863732 0.023838 -0.000000 -0.000000 -0.000000 -5.524352 -1.105820 -0.682876 16.560084 -0.368651 -2.228650 -15.645143 19.467240 3.749476 0.000000 0.000002 0.000000 0.000000 0.000000 -0.000000 -8.352955 -1.236410 -0.677481 21.067698 -0.050458 0.210751 -14.968855 -12.116902 0.050505 0.000000 0.000000 -0.000000 -0.000000 0.000000 -0.000000 -0.462464 -0.452354 -0.181835 -1.680449 -0.711012 0.405834 -1.680242 -0.702560 0.405203 1.991121 -0.641797 1.027212 1.336679 -3.045633 1.053668 -0.000000 0.000000 0.000000 -0.000000 0.000000 0.000000 -0.000000 0.000000 0.000000 -0.000000 0.000000 0.000000 0.000000 0.000000 0.000000 -0.000000 0.000000 0.000000 0.000000 0.000000 0.000000 -0.000000 0.000000 0.000000 -0.000000 0.000000 0.000000 0.892530 -14.419200 -8.786917 9.920487 -7.254181 -66.447536 -0.000001 -14.034572 -0.000014 -0.313089 7.716919 -0.900706 -2.089862 1.800902 5.920387 6.733454 15.145598 1.003894 -0.000000 -0.000002 0.000002 1.585811 4.921649 -16.515469 0.145825 1.300285 -12.796893 0.000000 0.000001 -0.000002 0.353401 4.179555 -17.503702 0.166324 1.387417 -13.670846 0.000003 0.000001 -0.000001 -1.258920 0.190488 -22.039977 0.279516 1.789655 -17.752345 -0.000003 0.000000 -0.000003 -5.085157 -3.318159 -23.030397 0.321052 1.914506 -19.037626 -0.000000 -0.000001 0.000003 0.000003 -0.000001 0.000000 1.173343 9.696656 6.699448 11.263916 8.811315 67.599099 0.000001 19.996941 0.000026 24.320159 10.919260 -6.596690 -4.571352 3.238673 -4.770624 6.788358 -18.014366 -2.407101 -0.000004 -0.000002 0.000000 1.464379 -5.210536 17.755338 0.333175 -1.731472 21.782337 0.000003 0.000000 0.000002 1.165414 -5.739031 24.463164 0.559485 -2.215088 28.347471 0.000003 -0.000001 -0.000001 -0.261205 -2.911201 28.745845 0.731804 -2.508117 32.527714 -0.000000 0.000000 0.000002 -2.972664 -3.831550 34.279965 1.019066 -2.909452 38.600162 -0.000003 -0.000002 0.000000 -0.000000 -0.000001 0.000001 -0.000000 -0.000000 -0.000000 -0.000000 0.000000 -0.000000 -0.000000 -0.000000 -0.000000 -0.000000 -0.000000 -0.000000 -0.000000 -0.000000 -0.000000 -0.000000 0.000000 -0.000000 -0.000000 -0.000000 -0.000000 -0.000000 -0.000000 -0.000000 -0.000000 -0.000000 -0.000000 -0.000000 0.000000 -0.000000 -0.000000 -0.000000 -0.000000 -0.000000 -0.000000 -0.000000 -0.000000 -0.000000 -0.000000 
-0.427051 70.113342 1.338714 4.272684 -5.154062 0.120569 0.000000 0.000000 -0.000000 -7.511215 0.915001 -0.213209 19.793654 1.508245 -2.776422 -17.440108 20.182876 3.956306 0.000000 0.000002 -0.000000 0.000000 0.000000 0.000000 -12.028868 -0.573726 -0.196680 25.970701 -0.196421 0.002134 -16.178696 -10.233113 -0.787986 0.000000 -0.000002 0.000000 0.000001 0.000000 -0.000000 0.199114 -0.939328 -0.497470 -1.086271 -1.009803 0.154228 -1.083045 -0.995386 0.153149 1.560779 -0.754076 1.121156 -0.132111 -4.146631 3.049821 0.000000 -0.000000 0.000000 0.000000 -0.000000 0.000000 0.000000 -0.000000 -0.000000 0.000000 -0.000000 -0.000000 0.000000 -0.000000 -0.000000 0.000000 -0.000000 -0.000000 0.000000 -0.000000 -0.000000 0.000000 -0.000000 0.000000 0.000000 -0.000000 0.000000 0.996807 -17.046731 -7.002026 5.493521 -2.731444 -65.169260 -0.000001 -13.813019 0.000002 6.523382 15.789145 -5.417798 -2.086855 2.017241 6.397615 6.979035 16.551324 1.181532 0.000003 -0.000000 -0.000002 1.705118 5.273969 -18.778191 0.191850 1.488430 -14.688233 0.000000 0.000003 -0.000003 0.425216 4.385662 -19.760921 0.212402 1.564745 -15.459995 0.000001 0.000001 0.000001 -1.407069 0.310088 -24.238062 0.338183 1.963399 -19.543620 -0.000008 -0.000001 -0.000000 -5.162893 -3.294471 -25.117119 0.382862 2.084930 -20.808788 -0.000003 -0.000003 0.000001 -0.000001 -0.000000 -0.000000 1.669887 7.304412 7.754734 8.973399 9.951303 63.983908 0.000002 22.384002 -0.000011 20.574997 12.141944 -5.179991 -4.571366 3.238671 -4.770632 7.003303 -19.831094 -2.548693 0.000002 -0.000000 0.000003 1.276577 -4.984816 22.203968 0.606542 -2.300082 29.541835 0.000001 0.000000 0.000002 1.424025 -5.971704 28.807853 0.896277 -2.748772 36.112644 -0.000000 -0.000001 0.000001 0.275096 -4.010051 32.943140 1.107100 -3.016276 40.303228 0.000001 -0.000003 -0.000003 -1.556900 -5.225403 38.543724 1.445615 -3.374469 46.370305 -0.000000 0.000004 0.000003 0.000001 0.000000 -0.000000 0.000000 -0.000001 0.000000 0.000000 -0.000001 0.000000 0.000000 -0.000001 0.000000 0.000000 -0.000001 0.000000 0.000000 -0.000001 0.000000 0.000000 -0.000001 0.000000 0.000000 -0.000001 0.000000 0.000000 -0.000001 0.000000 0.000000 -0.000001 0.000000 0.000000 -0.000001 0.000000 0.000000 0.000000 -0.000000 0.000000 0.000000 -0.000000 0.000000 0.000000 -0.000000 
